<?xml version="1.0" encoding="UTF-8"?>
<!-- Created with Inkscape (http://www.inkscape.org/) -->
<svg id="svg5" width="512" height="512" version="1.1" viewBox="0 0 135.47 135.47" xmlns="http://www.w3.org/2000/svg">
 <g id="layer1" transform="translate(-14.148 -168.68)">
  <rect id="rect17582" x="14.148" y="168.68" width="135.47" height="135.47" fill="#f5f5f5" stroke-width=".20451"/>
  <g id="g1045" transform="matrix(2.2252 0 0 2.2252 -27.383 -289.77)" fill="none" stroke="#244b90" stroke-linecap="round" stroke-width="4.6216">
   <path id="path846-6-5" d="m40.956 236.46c0-4.5-3.6477-8.1479-8.1477-8.1479-4.5 0-8.1479 3.648-8.1479 8.1479v16.074"/>
   <path id="path1305-6-7" d="m73.545 220.39v16.074c0 4.5-3.648 8.148-8.1479 8.148s-8.1479-3.648-8.1479-8.148c7e-6 -4.5 3.648-8.1479 8.1479-8.1479"/>
   <path id="path1566-8" d="m32.809 238.72h-8.1479"/>
   <path id="path5230-3" d="m54.955 228.32h-5.8576c-1.9706 0-3.568 1.824-3.568 4.074 0 2.25 1.5975 4.074 3.568 4.074s3.568 1.824 3.568 4.074c0 2.25-1.5975 4.074-3.568 4.074h-8.1408"/>
  </g>
 </g>
</svg>
