<?xml version="1.0" encoding="UTF-8"?>
<!-- Created with Inkscape (http://www.inkscape.org/) -->
<svg id="svg5" width="204.48mm" height="63.33mm" version="1.1" viewBox="0 0 204.48 63.33" xmlns="http://www.w3.org/2000/svg">
 <g id="layer1" transform="translate(-46.644 -202.49)">
  <path id="path846-6-5" d="m78.6 234.24c0-7.7286-6.2647-13.994-13.993-13.994-7.7286 0-13.994 6.2652-13.994 13.994v27.606" fill="none" stroke="#244b90" stroke-linecap="round" stroke-width="7.9375"/>
  <path id="path1305-6-7" d="m134.57 206.64v27.606c0 7.7286-6.2652 13.994-13.994 13.994s-13.994-6.2652-13.994-13.994c1e-5 -7.7286 6.2652-13.994 13.994-13.994" fill="none" stroke="#244b90" stroke-linecap="round" stroke-width="7.9375"/>
  <path id="path1566-8" d="m64.606 238.12h-13.994" fill="none" stroke="#244b90" stroke-linecap="round" stroke-width="7.9375"/>
  <path id="path5230-3" d="m102.64 220.25h-10.06c-3.3844 0-6.1279 3.1326-6.1279 6.9969 0 3.8643 2.7436 6.9969 6.1279 6.9969s6.1279 3.1326 6.1279 6.9969c0 3.8643-2.7436 6.9969-6.1279 6.9969h-13.981" fill="none" stroke="#244b90" stroke-linecap="round" stroke-width="7.9375"/>
  <text id="text62422" x="148.11453" y="214.5267" fill="#000000" font-family="Roboto" font-size="16.933px" font-weight="900" stroke-width=".26458" style="font-variant-caps:normal;font-variant-east-asian:normal;font-variant-ligatures:normal;font-variant-numeric:normal;line-height:1.1" xml:space="preserve"><tspan id="tspan62420" x="148.11453" y="214.5267" style="font-variant-caps:normal;font-variant-east-asian:normal;font-variant-ligatures:normal;font-variant-numeric:normal">FULL</tspan><tspan id="tspan62424" x="148.11453" y="233.15334" style="font-variant-caps:normal;font-variant-east-asian:normal;font-variant-ligatures:normal;font-variant-numeric:normal">STACK</tspan><tspan id="tspan62426" x="148.11453" y="251.77997" style="font-variant-caps:normal;font-variant-east-asian:normal;font-variant-ligatures:normal;font-variant-numeric:normal">DEVELOPERS</tspan></text>
 </g>
</svg>
