<?xml version="1.0" encoding="UTF-8"?>
<!-- Created with Inkscape (http://www.inkscape.org/) -->
<svg id="svg5" width="204.48mm" height="63.33mm" version="1.1" viewBox="0 0 204.48 63.33" xmlns="http://www.w3.org/2000/svg">
 <path id="path846-6-5" d="m31.956 31.569c0-7.7286-6.2647-13.994-13.993-13.994-7.7286 0-13.994 6.2652-13.994 13.994v27.606" fill="none" stroke="#244b90" stroke-linecap="round" stroke-width="7.9375"/>
 <path id="path1305-6-7" d="m87.926 3.9688v27.606c0 7.7286-6.2652 13.994-13.994 13.994s-13.994-6.2652-13.994-13.994c1e-5 -7.7286 6.2652-13.994 13.994-13.994" fill="none" stroke="#244b90" stroke-linecap="round" stroke-width="7.9375"/>
 <path id="path1566-8" d="m17.962 35.63h-13.994" fill="none" stroke="#244b90" stroke-linecap="round" stroke-width="7.9375"/>
 <path id="path5230-3" d="m55.996 17.579h-10.06c-3.3844 0-6.1279 3.1326-6.1279 6.9969s2.7436 6.9969 6.1279 6.9969 6.1279 3.1326 6.1279 6.9969-2.7436 6.9969-6.1279 6.9969h-13.981" fill="none" stroke="#244b90" stroke-linecap="round" stroke-width="7.9375"/>
 <g id="text18803" fill="#212529" stroke-width=".26458" aria-label="FULL STACK DEVELOPERS">
  <path id="path32105" d="m102.39 12.925v-12.039h8.0532v2.2407h-5.1511v2.7699h4.6798v2.2324h-4.6798v4.7956z"/>
  <path id="path32107" d="m118.18 0.88684h2.9021v7.8631q0 2.1167-1.2898 3.2329-1.2898 1.1079-3.4313 1.1079-2.1249 0-3.4396-1.1079-1.3146-1.1162-1.3146-3.2329v-7.8631h2.9104v7.9954q0.0496 1.9761 1.8438 1.9761 0.89297 0 1.356-0.49609 0.46302-0.49609 0.46302-1.6123z"/>
  <path id="path32109" d="m130.86 10.693v2.2324h-7.954v-12.039h2.9021v9.8061z"/>
  <path id="path32111" d="m140.03 10.693v2.2324h-7.954v-12.039h2.9021v9.8061z"/>
  <path id="path32113" d="m108.59 27.506q0-0.57051-0.39687-0.94258-0.38861-0.37207-1.7198-0.81028-1.3312-0.44648-2.2407-0.96738-0.90124-0.52916-1.3891-1.2237-0.47956-0.69453-0.47956-1.6784 0-1.5462 1.3146-2.4639 1.3146-0.91777 3.3156-0.91777 1.9761 0 3.2329 1.017 1.265 1.017 1.265 2.7202h-2.8856q0-0.67799-0.42168-1.1079-0.41341-0.43822-1.2568-0.43822-0.82682 0-1.2485 0.3638-0.42168 0.35553-0.42168 0.85163 0 0.53743 0.58705 0.9095 0.58704 0.3638 1.6206 0.69453 1.9182 0.61185 2.9683 1.5379 1.0583 0.91777 1.0583 2.4391 0 1.6288-1.2154 2.5053-1.2154 0.87643-3.2329 0.87643-1.2402 0-2.3978-0.42168t-1.9017-1.3229-0.74414-2.3234h2.9104q0 1.0583 0.55397 1.4717 0.55397 0.41341 1.5792 0.41341 0.82682 0 1.1824-0.34726 0.3638-0.34726 0.3638-0.83509z"/>
  <path id="path32115" d="m112.38 20.907v-2.2407h10.062v2.2407h-3.6215v9.7978h-2.9021v-9.7978z"/>
  <path id="path32117" d="m121.73 30.705 4.4235-12.039h2.7368l4.4483 12.039h-3.1254l-0.69453-2.249h-3.977l-0.69453 2.249zm4.5062-4.4896h2.588l-1.2981-4.192z"/>
  <path id="path32119" d="m140.89 26.629h2.8939q-0.0909 1.8934-1.4221 3.0675-1.3312 1.1741-3.5553 1.1741-2.3895 0-3.729-1.5379-1.3394-1.5379-1.3725-4.1837v-0.78548q0-2.7202 1.3808-4.2912 1.3891-1.5792 3.6794-1.5792 2.3564 0 3.6132 1.232 1.2568 1.2237 1.4221 3.1006h-2.8939q-0.0331-1.017-0.51263-1.5379-0.47129-0.5209-1.6288-0.5209-1.0666 0-1.5875 0.81855-0.5209 0.81028-0.52917 2.6954v0.73587q0 1.9182 0.48782 2.7533 0.48783 0.82682 1.6702 0.82682 2.0257 0 2.0836-1.9678z"/>
  <path id="path32121" d="m151.81 30.705-2.5631-4.4731-1.1906 1.2981v3.175h-2.9022v-12.039h2.9022v5.3082l1.0087-1.5296 2.5962-3.7786h3.5801l-4.0597 5.3165 4.0597 6.7221z"/>
  <path id="path32123" d="m102.39 48.485v-12.039h3.8695q1.6288 0 2.8856 0.73587 1.265 0.7276 1.9761 2.034 0.71933 1.2981 0.71933 3.0014v0.50436q0 2.5383-1.5544 4.1506-1.5462 1.604-3.9687 1.6123zm2.9022-9.7978v7.5654h1.0087q2.4308 0 2.5714-3.1337l8e-3 -0.91777q0-3.4396-2.5135-3.514z"/>
  <path id="path32125" d="m113.34 48.485v-12.039h8.3096v2.2407h-5.4074v2.5383h4.5558v2.158h-4.5558v2.8691h5.3826v2.2324z"/>
  <path id="path32127" d="m133.13 36.447-4.0597 12.039h-3.1667l-4.0349-12.039h3.2329l2.3895 8.7808 2.3895-8.7808z"/>
  <path id="path32129" d="m134.01 48.485v-12.039h8.3096v2.2407h-5.4074v2.5383h4.5558v2.158h-4.5558v2.8691h5.3826v2.2324z"/>
  <path id="path32131" d="m151.44 46.253v2.2324h-7.954v-12.039h2.9022v9.8061z"/>
  <path id="path32133" d="m162.32 42.714q0 2.7616-1.4717 4.3491-1.4717 1.5875-3.7786 1.5875-2.3234 0-3.8034-1.5875-1.4717-1.5875-1.4717-4.3491v-0.48782q0-2.7616 1.4635-4.3491 1.4717-1.5958 3.7951-1.5958 2.3068 0 3.7868 1.5958 1.48 1.5875 1.48 4.3491zm-2.9435-0.50436q0-1.819-0.57878-2.7368-0.57877-0.91777-1.7446-0.91777-2.1663 0-2.2986 3.2246l-8e-3 0.93431q0 1.7694 0.57877 2.7202 0.58705 0.95084 1.7446 0.95084 1.0997 0 1.695-0.93431 0.60358-0.94258 0.61185-2.6872z"/>
  <path id="path32135" d="m166.73 44.401v4.0845h-2.9022v-12.039h4.8038q2.1663 0 3.4148 1.1576t1.2485 2.9269q0 1.7529-1.2485 2.8112-1.2485 1.0583-3.4148 1.0583zm0-5.7133v3.4726h1.9017q0.9095 0 1.3146-0.45475 0.41341-0.45475 0.41341-1.1575 0-0.73587-0.41341-1.2981-0.40514-0.56224-1.3146-0.56224z"/>
  <path id="path32137" d="m174.86 48.485v-12.039h8.3096v2.2407h-5.4074v2.5383h4.5558v2.158h-4.5558v2.8691h5.3826v2.2324z"/>
  <path id="path32139" d="m190.92 48.485-2.1249-4.2499h-1.5627v4.2499h-2.9022v-12.039h4.7377q2.0836 0 3.3156 0.93431 1.2402 0.92604 1.2402 2.7037 0 1.3891-0.57877 2.1828-0.57051 0.79375-1.5214 1.2402l2.5053 4.8534v0.12402zm-3.6876-9.7978v3.3073h1.8355q1.6536 0 1.6536-1.6454 0-1.6371-1.604-1.6619z"/>
  <path id="path32141" d="m201.58 45.285q0-0.57051-0.39688-0.94258-0.3886-0.37207-1.7198-0.81028-1.3312-0.44648-2.2407-0.96738-0.90124-0.52917-1.3891-1.2237-0.47956-0.69453-0.47956-1.6784 0-1.5462 1.3146-2.4639 1.3146-0.91777 3.3156-0.91777 1.9761 0 3.2329 1.017 1.265 1.017 1.265 2.7202h-2.8856q0-0.67799-0.42168-1.1079-0.41341-0.43822-1.2568-0.43822-0.82683 0-1.2485 0.3638-0.42168 0.35553-0.42168 0.85162 0 0.53743 0.58704 0.9095 0.58704 0.3638 1.6206 0.69453 1.9182 0.61185 2.9683 1.5379 1.0583 0.91777 1.0583 2.4391 0 1.6288-1.2154 2.5053-1.2154 0.87643-3.2329 0.87643-1.2402 0-2.3978-0.42168-1.1576-0.42168-1.9017-1.3229-0.74414-0.90124-0.74414-2.3234h2.9104q0 1.0583 0.55397 1.4717 0.55397 0.41341 1.5792 0.41341 0.82682 0 1.1824-0.34726 0.36381-0.34726 0.36381-0.83509z"/>
 </g>
</svg>
